Coordinates
version=1
nRows=7
nColumns=40
inDegrees=yes

Units are S.I. units (second, meters, Newtons, ...)
Angles are in degrees.

endheader
time	pelvis_tilt	pelvis_list	pelvis_rotation	pelvis_tx	pelvis_ty	pelvis_tz	hip_flexion_r	hip_adduction_r	hip_rotation_r	knee_angle_r	knee_angle_r_beta	ankle_angle_r	subtalar_angle_r	mtp_angle_r	hip_flexion_l	hip_adduction_l	hip_rotation_l	knee_angle_l	knee_angle_l_beta	ankle_angle_l	subtalar_angle_l	mtp_angle_l	lumbar_extension	lumbar_bending	lumbar_rotation	arm_flex_r	arm_add_r	arm_rot_r	elbow_flex_r	pro_sup_r	wrist_flex_r	wrist_dev_r	arm_flex_l	arm_add_l	arm_rot_l	elbow_flex_l	pro_sup_l	wrist_flex_l	wrist_dev_l
     45.31500000	     -4.20700474	     -4.50993937	      6.13214064	      1.03548863	      0.92652673	      0.45335993	      0.09171718	     -0.67061191	    -17.47861653	     21.44240674	     21.44240674	     15.24910070	      1.21792536	     -8.55727459	     24.72838095	     -5.07224776	     -2.61691873	     24.51041499	     24.51041499	      6.97696819	    -13.97382060	      6.06047757	     -7.80538127	      4.72491737	      3.28778650	     22.02998505	    -15.11946220	      0.81019395	     47.36541680	     46.34398380	      0.00000000	      0.00000000	      2.84505759	     -9.90427062	     -5.07284606	     35.16014332	     45.83845361	      0.00000000	      0.00000000
     45.32857143	     -4.26687518	     -4.31986624	      5.96087854	      1.03588274	      0.92732838	      0.45013273	      1.11767669	     -1.56688450	    -17.15248079	     24.02133619	     24.02133619	     14.73958318	      0.45368800	     -9.39211865	     24.03694596	     -4.79931024	     -3.13805808	     24.06042335	     24.06042335	      7.35234326	    -13.50172459	      5.84242204	     -7.99137313	      4.60753839	      3.47591002	     20.16374327	    -15.14381142	      1.13108468	     45.50145250	     46.37821193	      0.00000000	      0.00000000	      3.56852387	    -10.07511849	     -5.16669439	     35.96657562	     45.86439196	      0.00000000	      0.00000000
     45.34214286	     -4.36582702	     -4.33438310	      5.79177494	      1.03618114	      0.92782917	      0.44716078	      2.25202614	     -2.11437569	    -16.42329735	     26.44401694	     26.44401694	     12.96057679	     -1.50317944	    -12.98606291	     23.53930119	     -4.76950055	     -3.63024237	     23.81306671	     23.81306671	      7.55247184	    -13.04567964	      4.90166323	     -7.95998005	      4.70044677	      2.88822918	     20.31536989	    -14.29491936	      1.92984104	     38.80162371	     46.52572743	      0.00000000	      0.00000000	      3.41726154	    -10.60450966	     -4.86193092	     37.77233994	     45.85007240	      0.00000000	      0.00000000
     45.35571429	     -4.40828889	     -4.19110680	      5.62899577	      1.03632470	      0.92832310	      0.44413662	      3.66367747	     -2.99795835	    -15.90463931	     29.64468913	     29.64468913	     12.14054494	     -2.57936056	    -13.68482561	     22.93090618	     -4.54203173	     -4.06856212	     23.51138902	     23.51138902	      7.97232360	    -12.63225169	      4.61754954	     -8.14455332	      4.62561360	      3.07442921	     18.37725091	    -14.37354297	      2.12102410	     37.23716614	     46.55461029	      0.00000000	      0.00000000	      4.21481658	    -10.82494198	     -4.99020129	     38.50673854	     45.88162674	      0.00000000	      0.00000000
     45.36928571	     -4.45413315	     -4.08628971	      5.48310252	      1.03631467	      0.92864376	      0.44126142	      5.27852346	     -3.78776802	    -15.14705229	     33.08080703	     33.08080703	     11.01347818	     -4.08073307	    -14.38897916	     22.41639839	     -4.37253123	     -4.52436779	     23.32683640	     23.32683640	      8.29825494	    -12.20259528	      4.27326334	     -8.27681711	      4.62296727	      3.25208802	     16.50875423	    -14.41691141	      2.31109728	     35.32662887	     46.59850080	      0.00000000	      0.00000000	      5.00388708	    -11.07007120	     -5.06714859	     39.31146425	     45.90730100	      0.00000000	      0.00000000
     45.38285714	     -4.44968089	     -4.22511488	      5.30750594	      1.03623472	      0.92888290	      0.43889422	      6.92741916	     -4.02113840	    -13.85044552	     36.34769620	     36.34769620	      8.99915159	     -6.97210221	    -15.99015225	     21.98349068	     -4.54448584	     -5.01909599	     23.33081639	     23.33081639	      8.65555138	    -11.62965541	      3.32274494	     -8.39037148	      4.81493246	      3.28068867	     15.61852661	    -14.11989250	      2.49048162	     30.86627753	     46.73452647	      0.00000000	      0.00000000	      5.42367311	    -11.48796753	     -4.74613770	     40.83922528	     45.89940279	      0.00000000	      0.00000000
     45.39642857	     -4.41348494	     -4.02287083	      5.20837997	      1.03596235	      0.92909420	      0.43620719	      8.70777490	     -4.91546291	    -13.17954720	     40.07373587	     40.07373587	      7.57682720	     -8.08212725	    -16.28924801	     21.39303538	     -4.24745361	     -5.33667682	     23.13713825	     23.13713825	      9.02886647	    -11.30840434	      3.05624737	     -8.62884238	      4.67545209	      2.87276244	     13.95246366	    -13.98889645	      2.54380502	     29.66097387	     46.76228924	      0.00000000	      0.00000000	      6.08392092	    -11.96876416	     -4.85354032	     41.41959362	     45.92573812	      0.00000000	      0.00000000
